<svg width="130" height="95" viewBox="0 0 130 95" fill="none" xmlns="http://www.w3.org/2000/svg">
<path d="M51.7209 13.511C51.7299 13.4193 51.7222 13.2358 51.7554 13.1571C52.0373 12.4888 58.9451 5.15476 59.8206 4.42769C61.5962 2.95333 64.1274 2.31922 66.4003 2.55089C69.6616 2.88335 72.3264 5.0079 74.3383 7.47888C75.9414 9.4479 76.5592 11.9801 76.2954 14.4833C76.1578 15.7879 75.7752 17.0653 75.1023 18.1959C74.0069 20.0365 71.5471 22.2874 70.0323 23.9032C69.0973 24.9004 67.47 26.8097 66.4421 27.5801C66.318 27.6732 66.1703 27.7273 66.0258 27.7788C65.3444 28.9806 63.1753 31.1721 62.1332 32.2784C60.5709 33.957 58.9952 35.6232 57.4062 37.2767C57.4853 34.1695 57.4128 30.7413 57.4014 27.6135C56.984 27.7158 54.5924 31.0262 53.4815 31.5891C47.5297 34.6054 41.0936 30.9929 42.7151 23.8819C42.9368 23.202 43.4073 21.9769 43.8439 21.49C45.3175 19.8465 50.1574 14.3818 51.7209 13.511Z" fill="#71D697"/>
<path d="M51.7209 13.511C51.7299 13.4193 51.7222 13.2358 51.7554 13.1571C52.0373 12.4888 58.9451 5.15476 59.8206 4.42768C61.5962 2.95333 64.1274 2.31922 66.4003 2.55089C69.6616 2.88335 72.3264 5.0079 74.3383 7.47888C75.9414 9.44789 76.5592 11.9801 76.2954 14.4833C76.1578 15.7879 75.7752 17.0653 75.1023 18.1959C74.0069 20.0365 71.5471 22.2874 70.0323 23.9032C69.0973 24.9004 67.47 26.8097 66.4421 27.5801C66.318 27.6732 66.1704 27.7273 66.0258 27.7788L66.3308 26.987C67.1452 24.8269 67.2041 22.6892 66.2853 20.5308C65.5202 18.7334 61.8385 15.0789 60.3061 13.9775C59.6872 13.5295 59.0098 13.1681 58.293 12.9034C55.9482 12.0464 53.8765 12.5032 51.7209 13.511Z" fill="#30A65D"/>
<path d="M42.7151 23.8819L49.6469 23.8709C50.9036 23.867 53.5384 23.7895 54.6285 24.0232C55.2778 24.1678 55.8725 24.494 56.3431 24.9637C57.091 25.6997 57.4281 26.5717 57.4014 27.6135C56.984 27.7158 54.5924 31.0262 53.4815 31.5891C47.5297 34.6054 41.0936 30.9929 42.7151 23.8819Z" fill="#30A65D"/>
<path d="M72.275 28.2424C72.1047 29.4825 72.0444 37.3803 72.2566 38.5266C72.3575 39.0721 72.6436 39.5715 72.9803 40.0054C73.0589 40.106 73.1431 40.2023 73.2325 40.2935C73.6248 39.6062 73.1499 37.0355 74.1635 35.8167C75.7094 33.8608 77.3907 32.951 79.8566 32.6482C84.4205 32.088 87.2597 33.9277 87.7821 38.5467C87.6452 39.8728 87.3979 41.1809 86.7523 42.3652C85.8307 44.0557 80.4095 49.7079 78.7276 51.0839C78.5342 51.2439 78.3319 51.393 78.1216 51.5303C78.0784 51.9985 77.0726 53.1345 76.7177 53.4713C73.4207 56.6368 71.3502 60.6351 66.4844 61.441C61.1057 62.3319 55.1508 57.4814 54.3843 52.161C54.0143 49.7256 54.6365 47.2445 56.1117 45.2717C57.1734 43.8748 58.7464 42.4836 59.9481 41.1815C60.6031 40.4718 62.6123 38.1457 63.4181 38.0322C64.218 36.4191 66.4977 34.2802 67.8406 32.8771L72.275 28.2424Z" fill="#71D697"/>
<path d="M63.4181 38.0323C62.5132 40.4847 62.2481 42.3944 63.3319 44.9453C64.0629 46.6655 67.6895 50.1526 69.1861 51.2002C69.8456 51.6633 70.5655 52.0339 71.3257 52.3008C73.6586 53.1176 75.6458 52.7471 77.7978 51.692C77.9061 51.6389 78.014 51.585 78.1216 51.5303C78.0784 51.9985 77.0726 53.1345 76.7177 53.4713C73.4207 56.6368 71.3502 60.6351 66.4844 61.441C61.1057 62.332 55.1508 57.4814 54.3843 52.161C54.0143 49.7257 54.6365 47.2446 56.1117 45.2717C57.1734 43.8748 58.7464 42.4836 59.9481 41.1816C60.6031 40.4718 62.6123 38.1457 63.4181 38.0323Z" fill="#30A65D"/>
<path d="M73.2325 40.2936C73.6249 39.6062 73.15 37.0355 74.1636 35.8168C75.7094 33.8608 77.3908 32.951 79.8567 32.6482C84.4206 32.088 87.2598 33.9277 87.7822 38.5467C86.2851 40.2112 85.2873 41.1685 82.8638 41.2439C81.3718 41.2903 79.8584 41.2706 78.3635 41.2806C76.6933 41.2243 74.4495 41.6859 73.2325 40.2936Z" fill="#30A65D"/>
<path d="M48.542 33.5065C50.8152 33.157 52.9443 34.7074 53.3072 36.9765C53.6702 39.2455 52.1308 41.3815 49.8618 41.7573C47.574 42.1362 45.4147 40.5827 45.0488 38.295C44.6828 36.0072 46.2501 33.8588 48.542 33.5065Z" fill="#30A65D"/>
<path d="M80.9515 23.3568C83.2306 23.1151 85.2781 24.7558 85.5367 27.0311C85.7953 29.3063 84.1681 31.3639 81.8927 31.6388C79.5937 31.9167 77.508 30.2704 77.2468 27.9715C76.9855 25.6725 78.6485 23.6009 80.9515 23.3568Z" fill="#30A65D"/>
<path d="M4.086 90V79.074H7.038V90H4.086ZM0.396 79.434V76.86H10.746V79.434H0.396ZM17.371 90V87.084H16.885V83.916C16.885 83.412 16.765 83.034 16.525 82.782C16.285 82.53 15.901 82.404 15.373 82.404C15.109 82.404 14.761 82.41 14.329 82.422C13.897 82.434 13.453 82.452 12.997 82.476C12.541 82.5 12.127 82.524 11.755 82.548V80.118C12.031 80.094 12.355 80.07 12.727 80.046C13.099 80.022 13.483 80.004 13.879 79.992C14.275 79.98 14.647 79.974 14.995 79.974C16.003 79.974 16.849 80.118 17.533 80.406C18.229 80.694 18.757 81.132 19.117 81.72C19.477 82.296 19.657 83.04 19.657 83.952V90H17.371ZM14.221 90.252C13.513 90.252 12.889 90.126 12.349 89.874C11.821 89.622 11.407 89.262 11.107 88.794C10.807 88.314 10.657 87.744 10.657 87.084C10.657 86.364 10.843 85.776 11.215 85.32C11.587 84.852 12.109 84.51 12.781 84.294C13.453 84.066 14.227 83.952 15.103 83.952H17.209V85.554H15.085C14.581 85.554 14.191 85.68 13.915 85.932C13.651 86.172 13.519 86.502 13.519 86.922C13.519 87.318 13.651 87.642 13.915 87.894C14.191 88.134 14.581 88.254 15.085 88.254C15.409 88.254 15.697 88.2 15.949 88.092C16.213 87.972 16.429 87.774 16.597 87.498C16.765 87.222 16.861 86.838 16.885 86.346L17.569 87.066C17.509 87.75 17.341 88.326 17.065 88.794C16.801 89.262 16.429 89.622 15.949 89.874C15.481 90.126 14.905 90.252 14.221 90.252ZM25.4845 90.306C24.0805 90.306 22.9825 90.018 22.1905 89.442C21.3985 88.866 20.9785 88.056 20.9305 87.012H23.4865C23.5345 87.324 23.7205 87.606 24.0445 87.858C24.3805 88.098 24.8785 88.218 25.5385 88.218C26.0425 88.218 26.4565 88.134 26.7805 87.966C27.1165 87.786 27.2845 87.534 27.2845 87.21C27.2845 86.922 27.1585 86.694 26.9065 86.526C26.6545 86.346 26.2045 86.22 25.5565 86.148L24.7825 86.076C23.5945 85.956 22.7005 85.626 22.1005 85.086C21.5125 84.546 21.2185 83.856 21.2185 83.016C21.2185 82.32 21.3925 81.738 21.7405 81.27C22.0885 80.802 22.5685 80.448 23.1805 80.208C23.8045 79.968 24.5125 79.848 25.3045 79.848C26.5765 79.848 27.6025 80.13 28.3825 80.694C29.1625 81.246 29.5705 82.05 29.6065 83.106H27.0505C27.0025 82.782 26.8345 82.512 26.5465 82.296C26.2585 82.068 25.8325 81.954 25.2685 81.954C24.8245 81.954 24.4705 82.038 24.2065 82.206C23.9425 82.374 23.8105 82.602 23.8105 82.89C23.8105 83.166 23.9245 83.376 24.1525 83.52C24.3805 83.664 24.7525 83.766 25.2685 83.826L26.0425 83.898C27.2545 84.03 28.1965 84.366 28.8685 84.906C29.5405 85.446 29.8765 86.172 29.8765 87.084C29.8765 87.744 29.6965 88.32 29.3365 88.812C28.9765 89.292 28.4665 89.664 27.8065 89.928C27.1465 90.18 26.3725 90.306 25.4845 90.306ZM38.3304 90L35.2164 85.392H33.8304L37.8444 80.136H40.8684L37.0884 85.032L37.1244 83.628L41.5704 90H38.3304ZM31.3824 90V76.86H34.2624V90H31.3824ZM48.7105 90.342C47.5225 90.342 46.5025 90.138 45.6505 89.73C44.7985 89.31 44.1025 88.764 43.5625 88.092C43.0225 87.408 42.6205 86.676 42.3565 85.896C42.1045 85.104 41.9785 84.336 41.9785 83.592V83.196C41.9785 82.38 42.1105 81.576 42.3745 80.784C42.6385 79.98 43.0405 79.254 43.5805 78.606C44.1325 77.958 44.8225 77.442 45.6505 77.058C46.4905 76.662 47.4805 76.464 48.6205 76.464C49.8085 76.464 50.8585 76.686 51.7705 77.13C52.6825 77.574 53.4085 78.192 53.9485 78.984C54.5005 79.764 54.8245 80.682 54.9205 81.738H51.9505C51.8665 81.21 51.6745 80.76 51.3745 80.388C51.0745 80.016 50.6845 79.728 50.2045 79.524C49.7365 79.32 49.2085 79.218 48.6205 79.218C48.0325 79.218 47.5105 79.32 47.0545 79.524C46.5985 79.728 46.2145 80.016 45.9025 80.388C45.6025 80.76 45.3685 81.204 45.2005 81.72C45.0445 82.224 44.9665 82.788 44.9665 83.412C44.9665 84.024 45.0445 84.588 45.2005 85.104C45.3685 85.608 45.6085 86.052 45.9205 86.436C46.2445 86.808 46.6405 87.096 47.1085 87.3C47.5765 87.492 48.1105 87.588 48.7105 87.588C49.6225 87.588 50.3905 87.366 51.0145 86.922C51.6505 86.478 52.0345 85.866 52.1665 85.086H55.1185C55.0105 86.046 54.6865 86.928 54.1465 87.732C53.6185 88.524 52.8925 89.16 51.9685 89.64C51.0565 90.108 49.9705 90.342 48.7105 90.342ZM61.361 90.342C60.497 90.342 59.729 90.21 59.057 89.946C58.385 89.67 57.815 89.298 57.347 88.83C56.891 88.362 56.543 87.828 56.303 87.228C56.063 86.616 55.943 85.974 55.943 85.302V84.888C55.943 84.204 56.063 83.556 56.303 82.944C56.555 82.32 56.915 81.774 57.383 81.306C57.863 80.838 58.439 80.472 59.111 80.208C59.783 79.932 60.533 79.794 61.361 79.794C62.213 79.794 62.969 79.932 63.629 80.208C64.301 80.472 64.871 80.838 65.339 81.306C65.807 81.774 66.167 82.32 66.419 82.944C66.671 83.556 66.797 84.204 66.797 84.888V85.302C66.797 85.974 66.677 86.616 66.437 87.228C66.197 87.828 65.843 88.362 65.375 88.83C64.919 89.298 64.355 89.67 63.683 89.946C63.011 90.21 62.237 90.342 61.361 90.342ZM61.361 87.912C61.925 87.912 62.393 87.792 62.765 87.552C63.137 87.312 63.419 86.976 63.611 86.544C63.815 86.112 63.917 85.632 63.917 85.104C63.917 84.54 63.815 84.048 63.611 83.628C63.407 83.196 63.113 82.854 62.729 82.602C62.357 82.35 61.901 82.224 61.361 82.224C60.833 82.224 60.377 82.35 59.993 82.602C59.609 82.854 59.315 83.196 59.111 83.628C58.919 84.048 58.823 84.54 58.823 85.104C58.823 85.632 58.919 86.112 59.111 86.544C59.303 86.976 59.591 87.312 59.975 87.552C60.359 87.792 60.821 87.912 61.361 87.912ZM72.191 90.306C70.787 90.306 69.689 90.018 68.897 89.442C68.105 88.866 67.685 88.056 67.637 87.012H70.193C70.241 87.324 70.427 87.606 70.751 87.858C71.087 88.098 71.585 88.218 72.245 88.218C72.749 88.218 73.163 88.134 73.487 87.966C73.823 87.786 73.991 87.534 73.991 87.21C73.991 86.922 73.865 86.694 73.613 86.526C73.361 86.346 72.911 86.22 72.263 86.148L71.489 86.076C70.301 85.956 69.407 85.626 68.807 85.086C68.219 84.546 67.925 83.856 67.925 83.016C67.925 82.32 68.099 81.738 68.447 81.27C68.795 80.802 69.275 80.448 69.887 80.208C70.511 79.968 71.219 79.848 72.011 79.848C73.283 79.848 74.309 80.13 75.089 80.694C75.869 81.246 76.277 82.05 76.313 83.106H73.757C73.709 82.782 73.541 82.512 73.253 82.296C72.965 82.068 72.539 81.954 71.975 81.954C71.531 81.954 71.177 82.038 70.913 82.206C70.649 82.374 70.517 82.602 70.517 82.89C70.517 83.166 70.631 83.376 70.859 83.52C71.087 83.664 71.459 83.766 71.975 83.826L72.749 83.898C73.961 84.03 74.903 84.366 75.575 84.906C76.247 85.446 76.583 86.172 76.583 87.084C76.583 87.744 76.403 88.32 76.043 88.812C75.683 89.292 75.173 89.664 74.513 89.928C73.853 90.18 73.079 90.306 72.191 90.306ZM82.5709 90.126C81.5749 90.126 80.7709 90.006 80.1589 89.766C79.5469 89.514 79.0969 89.1 78.8089 88.524C78.5329 87.936 78.3949 87.144 78.3949 86.148V77.472H81.0769V86.256C81.0769 86.724 81.1969 87.084 81.4369 87.336C81.6889 87.576 82.0429 87.696 82.4989 87.696H83.9569V90.126H82.5709ZM76.9009 82.242V80.136H83.9569V82.242H76.9009Z" fill="#30A65D"/>
</svg>
<svg width="130" height="95" viewBox="0 0 130 95" fill="none" xmlns="http://www.w3.org/2000/svg">
<path d="M51.7209 13.511C51.7299 13.4193 51.7222 13.2358 51.7554 13.1571C52.0373 12.4888 58.9451 5.15476 59.8206 4.42769C61.5962 2.95333 64.1274 2.31922 66.4003 2.55089C69.6616 2.88335 72.3264 5.0079 74.3383 7.47888C75.9414 9.4479 76.5592 11.9801 76.2954 14.4833C76.1578 15.7879 75.7752 17.0653 75.1023 18.1959C74.0069 20.0365 71.5471 22.2874 70.0323 23.9032C69.0973 24.9004 67.47 26.8097 66.4421 27.5801C66.318 27.6732 66.1703 27.7273 66.0258 27.7788C65.3444 28.9806 63.1753 31.1721 62.1332 32.2784C60.5709 33.957 58.9952 35.6232 57.4062 37.2767C57.4853 34.1695 57.4128 30.7413 57.4014 27.6135C56.984 27.7158 54.5924 31.0262 53.4815 31.5891C47.5297 34.6054 41.0936 30.9929 42.7151 23.8819C42.9368 23.202 43.4073 21.9769 43.8439 21.49C45.3175 19.8465 50.1574 14.3818 51.7209 13.511Z" fill="#71D697"/>
<path d="M51.7209 13.511C51.7299 13.4193 51.7222 13.2358 51.7554 13.1571C52.0373 12.4888 58.9451 5.15476 59.8206 4.42768C61.5962 2.95333 64.1274 2.31922 66.4003 2.55089C69.6616 2.88335 72.3264 5.0079 74.3383 7.47888C75.9414 9.44789 76.5592 11.9801 76.2954 14.4833C76.1578 15.7879 75.7752 17.0653 75.1023 18.1959C74.0069 20.0365 71.5471 22.2874 70.0323 23.9032C69.0973 24.9004 67.47 26.8097 66.4421 27.5801C66.318 27.6732 66.1704 27.7273 66.0258 27.7788L66.3308 26.987C67.1452 24.8269 67.2041 22.6892 66.2853 20.5308C65.5202 18.7334 61.8385 15.0789 60.3061 13.9775C59.6872 13.5295 59.0098 13.1681 58.293 12.9034C55.9482 12.0464 53.8765 12.5032 51.7209 13.511Z" fill="#30A65D"/>
<path d="M42.7151 23.8819L49.6469 23.8709C50.9036 23.867 53.5384 23.7895 54.6285 24.0232C55.2778 24.1678 55.8725 24.494 56.3431 24.9637C57.091 25.6997 57.4281 26.5717 57.4014 27.6135C56.984 27.7158 54.5924 31.0262 53.4815 31.5891C47.5297 34.6054 41.0936 30.9929 42.7151 23.8819Z" fill="#30A65D"/>
<path d="M72.275 28.2424C72.1047 29.4825 72.0444 37.3803 72.2566 38.5266C72.3575 39.0721 72.6436 39.5715 72.9803 40.0054C73.0589 40.106 73.1431 40.2023 73.2325 40.2935C73.6248 39.6062 73.1499 37.0355 74.1635 35.8167C75.7094 33.8608 77.3907 32.951 79.8566 32.6482C84.4205 32.088 87.2597 33.9277 87.7821 38.5467C87.6452 39.8728 87.3979 41.1809 86.7523 42.3652C85.8307 44.0557 80.4095 49.7079 78.7276 51.0839C78.5342 51.2439 78.3319 51.393 78.1216 51.5303C78.0784 51.9985 77.0726 53.1345 76.7177 53.4713C73.4207 56.6368 71.3502 60.6351 66.4844 61.441C61.1057 62.3319 55.1508 57.4814 54.3843 52.161C54.0143 49.7256 54.6365 47.2445 56.1117 45.2717C57.1734 43.8748 58.7464 42.4836 59.9481 41.1815C60.6031 40.4718 62.6123 38.1457 63.4181 38.0322C64.218 36.4191 66.4977 34.2802 67.8406 32.8771L72.275 28.2424Z" fill="#71D697"/>
<path d="M63.4181 38.0323C62.5132 40.4847 62.2481 42.3944 63.3319 44.9453C64.0629 46.6655 67.6895 50.1526 69.1861 51.2002C69.8456 51.6633 70.5655 52.0339 71.3257 52.3008C73.6586 53.1176 75.6458 52.7471 77.7978 51.692C77.9061 51.6389 78.014 51.585 78.1216 51.5303C78.0784 51.9985 77.0726 53.1345 76.7177 53.4713C73.4207 56.6368 71.3502 60.6351 66.4844 61.441C61.1057 62.332 55.1508 57.4814 54.3843 52.161C54.0143 49.7257 54.6365 47.2446 56.1117 45.2717C57.1734 43.8748 58.7464 42.4836 59.9481 41.1816C60.6031 40.4718 62.6123 38.1457 63.4181 38.0323Z" fill="#30A65D"/>
<path d="M73.2325 40.2936C73.6249 39.6062 73.15 37.0355 74.1636 35.8168C75.7094 33.8608 77.3908 32.951 79.8567 32.6482C84.4206 32.088 87.2598 33.9277 87.7822 38.5467C86.2851 40.2112 85.2873 41.1685 82.8638 41.2439C81.3718 41.2903 79.8584 41.2706 78.3635 41.2806C76.6933 41.2243 74.4495 41.6859 73.2325 40.2936Z" fill="#30A65D"/>
<path d="M48.542 33.5065C50.8152 33.157 52.9443 34.7074 53.3072 36.9765C53.6702 39.2455 52.1308 41.3815 49.8618 41.7573C47.574 42.1362 45.4147 40.5827 45.0488 38.295C44.6828 36.0072 46.2501 33.8588 48.542 33.5065Z" fill="#30A65D"/>
<path d="M80.9515 23.3568C83.2306 23.1151 85.2781 24.7558 85.5367 27.0311C85.7953 29.3063 84.1681 31.3639 81.8927 31.6388C79.5937 31.9167 77.508 30.2704 77.2468 27.9715C76.9855 25.6725 78.6485 23.6009 80.9515 23.3568Z" fill="#30A65D"/>
<path d="M4.086 90V79.074H7.038V90H4.086ZM0.396 79.434V76.86H10.746V79.434H0.396ZM17.371 90V87.084H16.885V83.916C16.885 83.412 16.765 83.034 16.525 82.782C16.285 82.53 15.901 82.404 15.373 82.404C15.109 82.404 14.761 82.41 14.329 82.422C13.897 82.434 13.453 82.452 12.997 82.476C12.541 82.5 12.127 82.524 11.755 82.548V80.118C12.031 80.094 12.355 80.07 12.727 80.046C13.099 80.022 13.483 80.004 13.879 79.992C14.275 79.98 14.647 79.974 14.995 79.974C16.003 79.974 16.849 80.118 17.533 80.406C18.229 80.694 18.757 81.132 19.117 81.72C19.477 82.296 19.657 83.04 19.657 83.952V90H17.371ZM14.221 90.252C13.513 90.252 12.889 90.126 12.349 89.874C11.821 89.622 11.407 89.262 11.107 88.794C10.807 88.314 10.657 87.744 10.657 87.084C10.657 86.364 10.843 85.776 11.215 85.32C11.587 84.852 12.109 84.51 12.781 84.294C13.453 84.066 14.227 83.952 15.103 83.952H17.209V85.554H15.085C14.581 85.554 14.191 85.68 13.915 85.932C13.651 86.172 13.519 86.502 13.519 86.922C13.519 87.318 13.651 87.642 13.915 87.894C14.191 88.134 14.581 88.254 15.085 88.254C15.409 88.254 15.697 88.2 15.949 88.092C16.213 87.972 16.429 87.774 16.597 87.498C16.765 87.222 16.861 86.838 16.885 86.346L17.569 87.066C17.509 87.75 17.341 88.326 17.065 88.794C16.801 89.262 16.429 89.622 15.949 89.874C15.481 90.126 14.905 90.252 14.221 90.252ZM25.4845 90.306C24.0805 90.306 22.9825 90.018 22.1905 89.442C21.3985 88.866 20.9785 88.056 20.9305 87.012H23.4865C23.5345 87.324 23.7205 87.606 24.0445 87.858C24.3805 88.098 24.8785 88.218 25.5385 88.218C26.0425 88.218 26.4565 88.134 26.7805 87.966C27.1165 87.786 27.2845 87.534 27.2845 87.21C27.2845 86.922 27.1585 86.694 26.9065 86.526C26.6545 86.346 26.2045 86.22 25.5565 86.148L24.7825 86.076C23.5945 85.956 22.7005 85.626 22.1005 85.086C21.5125 84.546 21.2185 83.856 21.2185 83.016C21.2185 82.32 21.3925 81.738 21.7405 81.27C22.0885 80.802 22.5685 80.448 23.1805 80.208C23.8045 79.968 24.5125 79.848 25.3045 79.848C26.5765 79.848 27.6025 80.13 28.3825 80.694C29.1625 81.246 29.5705 82.05 29.6065 83.106H27.0505C27.0025 82.782 26.8345 82.512 26.5465 82.296C26.2585 82.068 25.8325 81.954 25.2685 81.954C24.8245 81.954 24.4705 82.038 24.2065 82.206C23.9425 82.374 23.8105 82.602 23.8105 82.89C23.8105 83.166 23.9245 83.376 24.1525 83.52C24.3805 83.664 24.7525 83.766 25.2685 83.826L26.0425 83.898C27.2545 84.03 28.1965 84.366 28.8685 84.906C29.5405 85.446 29.8765 86.172 29.8765 87.084C29.8765 87.744 29.6965 88.32 29.3365 88.812C28.9765 89.292 28.4665 89.664 27.8065 89.928C27.1465 90.18 26.3725 90.306 25.4845 90.306ZM38.3304 90L35.2164 85.392H33.8304L37.8444 80.136H40.8684L37.0884 85.032L37.1244 83.628L41.5704 90H38.3304ZM31.3824 90V76.86H34.2624V90H31.3824ZM48.7105 90.342C47.5225 90.342 46.5025 90.138 45.6505 89.73C44.7985 89.31 44.1025 88.764 43.5625 88.092C43.0225 87.408 42.6205 86.676 42.3565 85.896C42.1045 85.104 41.9785 84.336 41.9785 83.592V83.196C41.9785 82.38 42.1105 81.576 42.3745 80.784C42.6385 79.98 43.0405 79.254 43.5805 78.606C44.1325 77.958 44.8225 77.442 45.6505 77.058C46.4905 76.662 47.4805 76.464 48.6205 76.464C49.8085 76.464 50.8585 76.686 51.7705 77.13C52.6825 77.574 53.4085 78.192 53.9485 78.984C54.5005 79.764 54.8245 80.682 54.9205 81.738H51.9505C51.8665 81.21 51.6745 80.76 51.3745 80.388C51.0745 80.016 50.6845 79.728 50.2045 79.524C49.7365 79.32 49.2085 79.218 48.6205 79.218C48.0325 79.218 47.5105 79.32 47.0545 79.524C46.5985 79.728 46.2145 80.016 45.9025 80.388C45.6025 80.76 45.3685 81.204 45.2005 81.72C45.0445 82.224 44.9665 82.788 44.9665 83.412C44.9665 84.024 45.0445 84.588 45.2005 85.104C45.3685 85.608 45.6085 86.052 45.9205 86.436C46.2445 86.808 46.6405 87.096 47.1085 87.3C47.5765 87.492 48.1105 87.588 48.7105 87.588C49.6225 87.588 50.3905 87.366 51.0145 86.922C51.6505 86.478 52.0345 85.866 52.1665 85.086H55.1185C55.0105 86.046 54.6865 86.928 54.1465 87.732C53.6185 88.524 52.8925 89.16 51.9685 89.64C51.0565 90.108 49.9705 90.342 48.7105 90.342ZM61.361 90.342C60.497 90.342 59.729 90.21 59.057 89.946C58.385 89.67 57.815 89.298 57.347 88.83C56.891 88.362 56.543 87.828 56.303 87.228C56.063 86.616 55.943 85.974 55.943 85.302V84.888C55.943 84.204 56.063 83.556 56.303 82.944C56.555 82.32 56.915 81.774 57.383 81.306C57.863 80.838 58.439 80.472 59.111 80.208C59.783 79.932 60.533 79.794 61.361 79.794C62.213 79.794 62.969 79.932 63.629 80.208C64.301 80.472 64.871 80.838 65.339 81.306C65.807 81.774 66.167 82.32 66.419 82.944C66.671 83.556 66.797 84.204 66.797 84.888V85.302C66.797 85.974 66.677 86.616 66.437 87.228C66.197 87.828 65.843 88.362 65.375 88.83C64.919 89.298 64.355 89.67 63.683 89.946C63.011 90.21 62.237 90.342 61.361 90.342ZM61.361 87.912C61.925 87.912 62.393 87.792 62.765 87.552C63.137 87.312 63.419 86.976 63.611 86.544C63.815 86.112 63.917 85.632 63.917 85.104C63.917 84.54 63.815 84.048 63.611 83.628C63.407 83.196 63.113 82.854 62.729 82.602C62.357 82.35 61.901 82.224 61.361 82.224C60.833 82.224 60.377 82.35 59.993 82.602C59.609 82.854 59.315 83.196 59.111 83.628C58.919 84.048 58.823 84.54 58.823 85.104C58.823 85.632 58.919 86.112 59.111 86.544C59.303 86.976 59.591 87.312 59.975 87.552C60.359 87.792 60.821 87.912 61.361 87.912ZM72.191 90.306C70.787 90.306 69.689 90.018 68.897 89.442C68.105 88.866 67.685 88.056 67.637 87.012H70.193C70.241 87.324 70.427 87.606 70.751 87.858C71.087 88.098 71.585 88.218 72.245 88.218C72.749 88.218 73.163 88.134 73.487 87.966C73.823 87.786 73.991 87.534 73.991 87.21C73.991 86.922 73.865 86.694 73.613 86.526C73.361 86.346 72.911 86.22 72.263 86.148L71.489 86.076C70.301 85.956 69.407 85.626 68.807 85.086C68.219 84.546 67.925 83.856 67.925 83.016C67.925 82.32 68.099 81.738 68.447 81.27C68.795 80.802 69.275 80.448 69.887 80.208C70.511 79.968 71.219 79.848 72.011 79.848C73.283 79.848 74.309 80.13 75.089 80.694C75.869 81.246 76.277 82.05 76.313 83.106H73.757C73.709 82.782 73.541 82.512 73.253 82.296C72.965 82.068 72.539 81.954 71.975 81.954C71.531 81.954 71.177 82.038 70.913 82.206C70.649 82.374 70.517 82.602 70.517 82.89C70.517 83.166 70.631 83.376 70.859 83.52C71.087 83.664 71.459 83.766 71.975 83.826L72.749 83.898C73.961 84.03 74.903 84.366 75.575 84.906C76.247 85.446 76.583 86.172 76.583 87.084C76.583 87.744 76.403 88.32 76.043 88.812C75.683 89.292 75.173 89.664 74.513 89.928C73.853 90.18 73.079 90.306 72.191 90.306ZM82.5709 90.126C81.5749 90.126 80.7709 90.006 80.1589 89.766C79.5469 89.514 79.0969 89.1 78.8089 88.524C78.5329 87.936 78.3949 87.144 78.3949 86.148V77.472H81.0769V86.256C81.0769 86.724 81.1969 87.084 81.4369 87.336C81.6889 87.576 82.0429 87.696 82.4989 87.696H83.9569V90.126H82.5709ZM76.9009 82.242V80.136H83.9569V82.242H76.9009Z" fill="#30A65D"/>
<path d="M93.8129 90.324C92.7209 90.324 91.7909 90.144 91.0229 89.784C90.2549 89.424 89.6669 88.926 89.2589 88.29C88.8509 87.654 88.6469 86.934 88.6469 86.13H90.4109C90.4109 86.526 90.5129 86.922 90.7169 87.318C90.9329 87.714 91.2869 88.044 91.7789 88.308C92.2829 88.572 92.9609 88.704 93.8129 88.704C94.6049 88.704 95.2529 88.59 95.7569 88.362C96.2609 88.122 96.6329 87.816 96.8729 87.444C97.1129 87.06 97.2329 86.646 97.2329 86.202C97.2329 85.662 96.9989 85.218 96.5309 84.87C96.0629 84.51 95.3789 84.288 94.4789 84.204L93.0209 84.078C91.8569 83.982 90.9269 83.622 90.2309 82.998C89.5349 82.374 89.1869 81.552 89.1869 80.532C89.1869 79.728 89.3789 79.026 89.7629 78.426C90.1589 77.826 90.7049 77.358 91.4009 77.022C92.0969 76.674 92.9069 76.5 93.8309 76.5C94.7429 76.5 95.5469 76.668 96.2429 77.004C96.9389 77.34 97.4789 77.814 97.8629 78.426C98.2589 79.026 98.4569 79.746 98.4569 80.586H96.6929C96.6929 80.166 96.5909 79.77 96.3869 79.398C96.1949 79.026 95.8889 78.72 95.4689 78.48C95.0489 78.24 94.5029 78.12 93.8309 78.12C93.1829 78.12 92.6429 78.234 92.2109 78.462C91.7909 78.69 91.4729 78.99 91.2569 79.362C91.0529 79.722 90.9509 80.112 90.9509 80.532C90.9509 81.012 91.1369 81.438 91.5089 81.81C91.8809 82.182 92.4329 82.398 93.1649 82.458L94.6229 82.584C95.5229 82.656 96.2969 82.848 96.9449 83.16C97.6049 83.46 98.1089 83.868 98.4569 84.384C98.8169 84.888 98.9969 85.494 98.9969 86.202C98.9969 87.006 98.7809 87.72 98.3489 88.344C97.9169 88.968 97.3109 89.454 96.5309 89.802C95.7509 90.15 94.8449 90.324 93.8129 90.324ZM101.345 93.6V80.388H102.713V84.546L102.389 84.51C102.449 83.478 102.665 82.638 103.037 81.99C103.421 81.33 103.919 80.844 104.531 80.532C105.143 80.22 105.809 80.064 106.529 80.064C107.225 80.064 107.855 80.196 108.419 80.46C108.995 80.724 109.487 81.084 109.895 81.54C110.303 81.996 110.615 82.524 110.831 83.124C111.047 83.724 111.155 84.36 111.155 85.032V85.356C111.155 86.028 111.041 86.664 110.813 87.264C110.585 87.864 110.261 88.392 109.841 88.848C109.433 89.304 108.941 89.664 108.365 89.928C107.801 90.192 107.177 90.324 106.493 90.324C105.809 90.324 105.155 90.174 104.531 89.874C103.907 89.574 103.391 89.088 102.983 88.416C102.575 87.744 102.341 86.862 102.281 85.77L103.073 87.21V93.6H101.345ZM106.223 88.812C106.871 88.812 107.435 88.662 107.915 88.362C108.395 88.05 108.767 87.624 109.031 87.084C109.295 86.532 109.427 85.902 109.427 85.194C109.427 84.474 109.295 83.844 109.031 83.304C108.767 82.764 108.395 82.344 107.915 82.044C107.435 81.732 106.871 81.576 106.223 81.576C105.647 81.576 105.113 81.708 104.621 81.972C104.129 82.224 103.733 82.596 103.433 83.088C103.145 83.568 103.001 84.15 103.001 84.834V85.662C103.001 86.322 103.151 86.886 103.451 87.354C103.751 87.822 104.147 88.182 104.639 88.434C105.131 88.686 105.659 88.812 106.223 88.812ZM113.503 90V76.86H115.231V90H113.503ZM112.171 78.228V76.86H115.231V78.228H112.171ZM118.654 90V80.388H120.382V90H118.654ZM117.178 81.756V80.388H120.382V81.756H117.178ZM119.14 78.84C118.756 78.84 118.468 78.738 118.276 78.534C118.096 78.33 118.006 78.072 118.006 77.76C118.006 77.448 118.096 77.19 118.276 76.986C118.468 76.782 118.756 76.68 119.14 76.68C119.524 76.68 119.806 76.782 119.986 76.986C120.178 77.19 120.274 77.448 120.274 77.76C120.274 78.072 120.178 78.33 119.986 78.534C119.806 78.738 119.524 78.84 119.14 78.84ZM127.107 90.108C126.387 90.108 125.763 90.006 125.235 89.802C124.719 89.598 124.317 89.25 124.029 88.758C123.753 88.254 123.615 87.576 123.615 86.724V77.472H125.271V86.94C125.271 87.456 125.409 87.858 125.685 88.146C125.973 88.422 126.375 88.56 126.891 88.56H128.583V90.108H127.107ZM121.959 81.684V80.388H128.583V81.684H121.959Z" fill="#71D697"/>
</svg>
