<svg width="77" height="62" viewBox="0 0 77 62" fill="none" xmlns="http://www.w3.org/2000/svg" preserveAspectRatio="xMidYMid meet">
<g transform="translate(-25 0)">
<path d="M51.7209 13.511C51.7299 13.4193 51.7222 13.2358 51.7554 13.1571C52.0373 12.4888 58.9451 5.15476 59.8206 4.42769C61.5962 2.95333 64.1274 2.31922 66.4003 2.55089C69.6616 2.88335 72.3264 5.0079 74.3383 7.47888C75.9414 9.4479 76.5592 11.9801 76.2954 14.4833C76.1578 15.7879 75.7752 17.0653 75.1023 18.1959C74.0069 20.0365 71.5471 22.2874 70.0323 23.9032C69.0973 24.9004 67.47 26.8097 66.4421 27.5801C66.318 27.6732 66.1703 27.7273 66.0258 27.7788C65.3444 28.9806 63.1753 31.1721 62.1332 32.2784C60.5709 33.957 58.9952 35.6232 57.4062 37.2767C57.4853 34.1695 57.4128 30.7413 57.4014 27.6135C56.984 27.7158 54.5924 31.0262 53.4815 31.5891C47.5297 34.6054 41.0936 30.9929 42.7151 23.8819C42.9368 23.202 43.4073 21.9769 43.8439 21.49C45.3175 19.8465 50.1574 14.3818 51.7209 13.511Z" fill="#71D697"/>
<path d="M51.7209 13.511C51.7299 13.4193 51.7222 13.2358 51.7554 13.1571C52.0373 12.4888 58.9451 5.15476 59.8206 4.42768C61.5962 2.95333 64.1274 2.31922 66.4003 2.55089C69.6616 2.88335 72.3264 5.0079 74.3383 7.47888C75.9414 9.44789 76.5592 11.9801 76.2954 14.4833C76.1578 15.7879 75.7752 17.0653 75.1023 18.1959C74.0069 20.0365 71.5471 22.2874 70.0323 23.9032C69.0973 24.9004 67.47 26.8097 66.4421 27.5801C66.318 27.6732 66.1704 27.7273 66.0258 27.7788L66.3308 26.987C67.1452 24.8269 67.2041 22.6892 66.2853 20.5308C65.5202 18.7334 61.8385 15.0789 60.3061 13.9775C59.6872 13.5295 59.0098 13.1681 58.293 12.9034C55.9482 12.0464 53.8765 12.5032 51.7209 13.511Z" fill="#30A65D"/>
<path d="M42.7151 23.8819L49.6469 23.8709C50.9036 23.867 53.5384 23.7895 54.6285 24.0232C55.2778 24.1678 55.8725 24.494 56.3431 24.9637C57.091 25.6997 57.4281 26.5717 57.4014 27.6135C56.984 27.7158 54.5924 31.0262 53.4815 31.5891C47.5297 34.6054 41.0936 30.9929 42.7151 23.8819Z" fill="#30A65D"/>
<path d="M72.275 28.2424C72.1047 29.4825 72.0444 37.3803 72.2566 38.5266C72.3575 39.0721 72.6436 39.5715 72.9803 40.0054C73.0589 40.106 73.1431 40.2023 73.2325 40.2935C73.6248 39.6062 73.1499 37.0355 74.1635 35.8167C75.7094 33.8608 77.3907 32.951 79.8566 32.6482C84.4205 32.088 87.2597 33.9277 87.7821 38.5467C87.6452 39.8728 87.3979 41.1809 86.7523 42.3652C85.8307 44.0557 80.4095 49.7079 78.7276 51.0839C78.5342 51.2439 78.3319 51.393 78.1216 51.5303C78.0784 51.9985 77.0726 53.1345 76.7177 53.4713C73.4207 56.6368 71.3502 60.6351 66.4844 61.441C61.1057 62.3319 55.1508 57.4814 54.3843 52.161C54.0143 49.7256 54.6365 47.2445 56.1117 45.2717C57.1734 43.8748 58.7464 42.4836 59.9481 41.1815C60.6031 40.4718 62.6123 38.1457 63.4181 38.0322C64.218 36.4191 66.4977 34.2802 67.8406 32.8771L72.275 28.2424Z" fill="#71D697"/>
<path d="M63.4181 38.0323C62.5132 40.4847 62.2481 42.3944 63.3319 44.9453C64.0629 46.6655 67.6895 50.1526 69.1861 51.2002C69.8456 51.6633 70.5655 52.0339 71.3257 52.3008C73.6586 53.1176 75.6458 52.7471 77.7978 51.692C77.9061 51.6389 78.014 51.585 78.1216 51.5303C78.0784 51.9985 77.0726 53.1345 76.7177 53.4713C73.4207 56.6368 71.3502 60.6351 66.4844 61.441C61.1057 62.332 55.1508 57.4814 54.3843 52.161C54.0143 49.7257 54.6365 47.2446 56.1117 45.2717C57.1734 43.8748 58.7464 42.4836 59.9481 41.1816C60.6031 40.4718 62.6123 38.1457 63.4181 38.0323Z" fill="#30A65D"/>
<path d="M73.2325 40.2936C73.6249 39.6062 73.15 37.0355 74.1636 35.8168C75.7094 33.8608 77.3908 32.951 79.8567 32.6482C84.4206 32.088 87.2598 33.9277 87.7822 38.5467C86.2851 40.2112 85.2873 41.1685 82.8638 41.2439C81.3718 41.2903 79.8584 41.2706 78.3635 41.2806C76.6933 41.2243 74.4495 41.6859 73.2325 40.2936Z" fill="#30A65D"/>
<path d="M48.542 33.5065C50.8152 33.157 52.9443 34.7074 53.3072 36.9765C53.6702 39.2455 52.1308 41.3815 49.8618 41.7573C47.574 42.1362 45.4147 40.5827 45.0488 38.295C44.6828 36.0072 46.2501 33.8588 48.542 33.5065Z" fill="#30A65D"/>
<path d="M80.9515 23.3568C83.2306 23.1151 85.2781 24.7558 85.5367 27.0311C85.7953 29.3063 84.1681 31.3639 81.8927 31.6388C79.5937 31.9167 77.508 30.2704 77.2468 27.9715C76.9855 25.6725 78.6485 23.6009 80.9515 23.3568Z" fill="#30A65D"/>
</g>
</svg>
